<?xml version="1.0" encoding="UTF-8"?><svg id="Layer_1" xmlns="http://www.w3.org/2000/svg" xmlns:xlink="http://www.w3.org/1999/xlink" viewBox="0 0 693.987 645.592"><defs><style>.cls-1{fill:#fff;}.cls-2{fill:#7603ff;}</style></defs><g id="PI_x5F_Logo"><rect width="506.709" height="506.709" rx="68.661" ry="68.661"/></g><g id="Stripes"><g id="Line_3"><path class="cls-2" d="M486.126,95.515l-20.765,185.186c-.39,3.475-.929,6.931-1.617,10.359l-2.438,12.146c-4.59,17.49-13.33,37.68-26.48,50.65-2.41,2.38-5.26,4.28-8.33,5.72h0c-6.014,2.821-12.373,4.836-18.914,5.993l-282.696,49.988-32.19-31.58,313.166-47.427c1.294-.196,4.446-.747,7.225-1.303,1.772-.354,3.503-.885,5.173-1.577l3.302-1.368c9.058-4.529,15.603-11.565,20.163-20.605l4.45-10.44c1.31-3.08,2.44-6.24,3.38-9.46l1.378-4.725c1.007-3.453,1.778-6.97,2.308-10.528l27.774-186.438,5.11,5.41Z"/></g><g id="Line_2"><path class="cls-2" d="M471.776,82.935l-35.42,176.67c-5.71,21.61-14.27,38.5-32.9,50.47-.64.41-1.32.75-2.01,1.04l-1.43.59c-.53.25-2.73.95-3.09,1.02l-326.38,46.28-26.16-26.96,345.31-41.46,3.69-.79c5.61-1.59,11.46-4.88,15.65-8.95,4.38-4.26,7.94-9.52,10.34-14.91l3.48-7.28c.73-1.53,1.33-2.97,1.9-4.51.32-.85.6-1.72.86-2.59l.43-1.44,40.5-172.81,5.23,5.63Z"/></g><g id="Line_1"><path class="cls-2" d="M460.236,69.955l-42.8,152.43c-3.58,9.53-8.62,19.1-14.95,27.55-6.32,8.46-13.91,15.79-22.57,20.86-.75.44-.922.613-1.872.953-.34.12-1.938.707-2.288.757l-2.74.41L29.966,314.585l-20.34-21.93,365.83-39.3,2.89-.59c.85-.29,1.66-.67,2.4-1.18,8.46-5.86,16.52-15.56,21.62-24.48l1.01-2c.78-1.54,1.49-3.11,2.14-4.71l.51-1.28,47.68-154.87,6.53,5.71Z"/></g></g><g id="PI_x5F_Logo_x5F_FG"><path class="cls-1" d="M364.393,221.5c-.432.015-.966.033-1.66.033l-.042-.055c-1.954.443-4.384.284-6.871.12-7.373-.484-15.237-1-12.629,14.068.581,3.319-3.446,4.135-6.117,4.273-7.584.415-15.195.581-22.793.429-1.439-.023-2.909-1.233-4.237-2.326-.23-.189-.455-.375-.676-.551-.235-.194.651-2.696,1.107-2.724,7.411-.432,10.1-5.455,12.782-10.463,1.349-2.52,2.696-5.036,4.642-6.961,17.603-17.438,35.58-34.544,56.146-48.594,2.007-1.369,4.456-2.628,6.117-.249,1.281,1.838.083,2.879-1.147,3.948-.538.467-1.082.94-1.427,1.487-1.242,1.969-3.445,3.42-5.636,4.863-4.302,2.834-8.558,5.636-5.394,12.271,2.744,5.744.289,6.763-3.485,8.33l-.155.064c-1.615.677-3.267,1.291-4.918,1.905-3.513,1.306-7.022,2.612-10.167,4.512-3.156,1.908-4.664,5.628.498,7.827,11.279,4.798,40.48-2.863,46.181-13.428,5.328-9.886,13.291-17.218,21.247-24.545,4.464-4.111,8.928-8.221,12.922-12.779,8.616-9.819,18.7-18.348,28.791-26.882,5.016-4.242,10.033-8.485,14.872-12.889,3.64-3.319,5.148-7.689,2.297-12.46-2.837-4.743-7.653-5.379-12.178-4.314-29.824,7.011-58.637,16.47-84.225,34.129-40.853,28.197-81.776,56.296-123.03,83.898-14.061,9.417-22.572,4.812-27.263-11.492-10.421-36.203-25.7-67.774-69.597-72.683-16.04-1.798-27.803,8.242-25.478,24.172,1.176,8.076.111,15.682-3.778,23.26-.857,1.673-1.723,3.347-2.589,5.022-5.988,11.578-12.027,23.256-15.775,35.578-.314,1.03-.673,2.115-1.043,3.233-3.341,10.088-7.589,22.913,12.681,23.623.83.028,2.422,2.116,2.228,2.89-.443,1.839-1.342,4.024-2.782,5.089-19.43,14.313-35.4,31.64-42.265,55.079-3.474,11.837-1.176,24.131,8.94,33.299,7.238,6.555,16.482,10.358,24.592,4.84,7.397-5.031,15.514-8.407,23.615-11.776,7.13-2.966,14.248-5.926,20.85-10.004,1.592-.985,3.524-1.884,5.481-2.794,5.409-2.517,10.995-5.116,10.019-9.818-1.536-7.371-9.328-14.202-15.818-19.567-6.435-5.324-22.835-41.071-20.883-49.659,2.732-12.026,8.884-22.438,15.042-32.86,5.256-8.897,10.518-17.801,13.66-27.723,1.301-4.094,6.283-6.334,11.085-4.702,3.259,1.103,2.704,4.093,2.187,6.878-.014.077-.028.154-.042.23-1.947,10.704-3.857,21.421-5.767,32.137-.955,5.357-1.91,10.714-2.869,16.069-.609,3.43.457,6.168,4.014,6.859,6.85,1.341,6.698,4.425,3.612,9.721-3.28,5.615-3.737,12.473-.069,17.659,3.681,5.213,9.84,6.306,16.095,3.18,3.903-1.936,6.934-.207,6.892,3.72-.249,20.978,8.539,16.249,19.237,7.094.984-.843,2.325-1.309,3.62-1.759.235-.082.469-.163.698-.246,1.015-.362,2.031-.722,3.047-1.082,20.137-7.139,40.248-14.27,51.618-34.872.877-1.609,3.761-2.389,6.003-2.996.128-.035.254-.068.377-.102,13.001-3.53,26.274-3.583,39.538-3.636,9.962-.04,19.919-.079,29.754-1.592,9.701-1.493,20.274-7.149,20.357-16.511.077-7.548-5.704-7.079-11.481-6.61-2.5.203-4.998.406-7.022-.041-.41-.085-.841-.071-1.537-.047Z"/><path class="cls-1" d="M211.581,327.198c-2.408,16.013,3.709,29.718,28.744,29.538h-.014c21.382-.871,45.572-13.801,69.21-30.34,15.611-10.925,29.104-22.444,37.85-39.467,6.435-12.515,3.128-22.554-6.574-31.336-4.276-3.872-8.359-4.3-13.147.373-16.995,16.622-38.155,25.694-59.882,34.82-5.537,2.328-11.843,3.49-18.194,4.66-16.922,3.117-34.159,6.292-37.993,31.751Z"/></g></svg>
